<mxfile host="app.diagrams.net" modified="2021-03-11T00:25:13.006Z" agent="5.0 (Macintosh; Intel Mac OS X 10_15_6) AppleWebKit/605.1.15 (KHTML, like Gecko) Version/14.0.3 Safari/605.1.15" etag="3OnzbshEHhMO3Jbbxk9J" version="14.4.6" type="github">
  <diagram id="JPXVXQhIoLzRGJiNxMO3" name="Page-1">
    <mxGraphModel dx="1740" dy="1225" grid="1" gridSize="10" guides="1" tooltips="1" connect="1" arrows="1" fold="1" page="1" pageScale="1" pageWidth="1200" pageHeight="1600" math="0" shadow="0">
      <root>
        <mxCell id="0" />
        <mxCell id="1" value="Base" style="locked=1;" parent="0" />
        <mxCell id="NRUyum9-wbXjrjiuYs28-4" style="edgeStyle=orthogonalEdgeStyle;rounded=0;orthogonalLoop=1;jettySize=auto;html=1;exitX=0.5;exitY=1;exitDx=0;exitDy=0;" parent="1" source="NRUyum9-wbXjrjiuYs28-1" target="NRUyum9-wbXjrjiuYs28-3" edge="1">
          <mxGeometry relative="1" as="geometry" />
        </mxCell>
        <mxCell id="NRUyum9-wbXjrjiuYs28-1" value="Start" style="ellipse;whiteSpace=wrap;html=1;aspect=fixed;" parent="1" vertex="1">
          <mxGeometry x="575" y="10" width="50" height="50" as="geometry" />
        </mxCell>
        <mxCell id="NRUyum9-wbXjrjiuYs28-7" style="edgeStyle=orthogonalEdgeStyle;rounded=0;orthogonalLoop=1;jettySize=auto;html=1;exitX=1;exitY=0.5;exitDx=0;exitDy=0;" parent="1" source="NRUyum9-wbXjrjiuYs28-2" target="NRUyum9-wbXjrjiuYs28-9" edge="1">
          <mxGeometry relative="1" as="geometry">
            <mxPoint x="920" y="140.0000000000001" as="targetPoint" />
          </mxGeometry>
        </mxCell>
        <mxCell id="NRUyum9-wbXjrjiuYs28-2" value="로그인 페이지" style="rounded=0;whiteSpace=wrap;html=1;" parent="1" vertex="1">
          <mxGeometry x="750" y="120" width="100" height="40" as="geometry" />
        </mxCell>
        <mxCell id="NRUyum9-wbXjrjiuYs28-5" style="edgeStyle=orthogonalEdgeStyle;rounded=0;orthogonalLoop=1;jettySize=auto;html=1;exitX=1;exitY=0.5;exitDx=0;exitDy=0;" parent="1" source="NRUyum9-wbXjrjiuYs28-3" target="NRUyum9-wbXjrjiuYs28-2" edge="1">
          <mxGeometry relative="1" as="geometry" />
        </mxCell>
        <mxCell id="NRUyum9-wbXjrjiuYs28-12" style="edgeStyle=orthogonalEdgeStyle;rounded=0;orthogonalLoop=1;jettySize=auto;html=1;exitX=0.5;exitY=1;exitDx=0;exitDy=0;" parent="1" source="NRUyum9-wbXjrjiuYs28-3" target="NRUyum9-wbXjrjiuYs28-11" edge="1">
          <mxGeometry relative="1" as="geometry" />
        </mxCell>
        <mxCell id="NRUyum9-wbXjrjiuYs28-3" value="로그인 여부" style="rhombus;whiteSpace=wrap;html=1;" parent="1" vertex="1">
          <mxGeometry x="530" y="110" width="140" height="60" as="geometry" />
        </mxCell>
        <mxCell id="NRUyum9-wbXjrjiuYs28-10" style="edgeStyle=orthogonalEdgeStyle;orthogonalLoop=1;jettySize=auto;html=1;exitX=0.5;exitY=0;exitDx=0;exitDy=0;rounded=1;" parent="1" source="NRUyum9-wbXjrjiuYs28-9" target="NRUyum9-wbXjrjiuYs28-3" edge="1">
          <mxGeometry relative="1" as="geometry">
            <Array as="points">
              <mxPoint x="970" y="80" />
              <mxPoint x="600" y="80" />
            </Array>
          </mxGeometry>
        </mxCell>
        <mxCell id="NRUyum9-wbXjrjiuYs28-9" value="소셜 로그인" style="shape=parallelogram;perimeter=parallelogramPerimeter;whiteSpace=wrap;html=1;fixedSize=1;" parent="1" vertex="1">
          <mxGeometry x="920" y="120" width="100" height="40" as="geometry" />
        </mxCell>
        <mxCell id="NRUyum9-wbXjrjiuYs28-14" style="edgeStyle=orthogonalEdgeStyle;rounded=0;orthogonalLoop=1;jettySize=auto;html=1;exitX=0.5;exitY=1;exitDx=0;exitDy=0;" parent="1" source="NRUyum9-wbXjrjiuYs28-11" target="NRUyum9-wbXjrjiuYs28-13" edge="1">
          <mxGeometry relative="1" as="geometry" />
        </mxCell>
        <mxCell id="NRUyum9-wbXjrjiuYs28-11" value="메인 페이지" style="whiteSpace=wrap;html=1;" parent="1" vertex="1">
          <mxGeometry x="380" y="210" width="440" height="20" as="geometry" />
        </mxCell>
        <mxCell id="NRUyum9-wbXjrjiuYs28-21" value="" style="group" parent="1" vertex="1" connectable="0">
          <mxGeometry x="380" y="260" width="440" height="240" as="geometry" />
        </mxCell>
        <mxCell id="NRUyum9-wbXjrjiuYs28-13" value="" style="whiteSpace=wrap;html=1;" parent="NRUyum9-wbXjrjiuYs28-21" vertex="1">
          <mxGeometry width="440" height="240" as="geometry" />
        </mxCell>
        <mxCell id="NRUyum9-wbXjrjiuYs28-15" value="Title Bar" style="whiteSpace=wrap;html=1;" parent="NRUyum9-wbXjrjiuYs28-21" vertex="1">
          <mxGeometry x="10" y="10" width="420" height="20" as="geometry" />
        </mxCell>
        <mxCell id="NRUyum9-wbXjrjiuYs28-17" value="List" style="whiteSpace=wrap;html=1;" parent="NRUyum9-wbXjrjiuYs28-21" vertex="1">
          <mxGeometry x="10" y="40" width="110" height="160" as="geometry" />
        </mxCell>
        <mxCell id="NRUyum9-wbXjrjiuYs28-18" value="Result View" style="whiteSpace=wrap;html=1;" parent="NRUyum9-wbXjrjiuYs28-21" vertex="1">
          <mxGeometry x="130" y="40" width="300" height="160" as="geometry" />
        </mxCell>
        <mxCell id="NRUyum9-wbXjrjiuYs28-19" value="Player Bar" style="whiteSpace=wrap;html=1;" parent="NRUyum9-wbXjrjiuYs28-21" vertex="1">
          <mxGeometry x="10" y="210" width="420" height="20" as="geometry" />
        </mxCell>
        <mxCell id="NRUyum9-wbXjrjiuYs28-211" value="List" style="locked=1;" parent="0" />
        <mxCell id="NRUyum9-wbXjrjiuYs28-217" style="edgeStyle=orthogonalEdgeStyle;rounded=1;orthogonalLoop=1;jettySize=auto;html=1;shadow=0;startArrow=oval;startFill=1;endArrow=classic;endFill=1;strokeWidth=1;fillColor=#f8cecc;strokeColor=#b85450;" parent="NRUyum9-wbXjrjiuYs28-211" target="NRUyum9-wbXjrjiuYs28-214" edge="1">
          <mxGeometry relative="1" as="geometry">
            <mxPoint x="400" y="383" as="sourcePoint" />
            <mxPoint x="340" y="382.50892857142867" as="targetPoint" />
            <Array as="points">
              <mxPoint x="370" y="383" />
              <mxPoint x="370" y="383" />
            </Array>
          </mxGeometry>
        </mxCell>
        <mxCell id="NRUyum9-wbXjrjiuYs28-220" value="" style="group" parent="NRUyum9-wbXjrjiuYs28-211" vertex="1" connectable="0">
          <mxGeometry x="250" y="300" width="92.5" height="130" as="geometry" />
        </mxCell>
        <mxCell id="NRUyum9-wbXjrjiuYs28-214" value="" style="whiteSpace=wrap;html=1;rounded=0;glass=0;labelBackgroundColor=none;sketch=0;align=center;rotation=0;" parent="NRUyum9-wbXjrjiuYs28-220" vertex="1">
          <mxGeometry width="92.5" height="130" as="geometry" />
        </mxCell>
        <mxCell id="NRUyum9-wbXjrjiuYs28-212" value="Main" style="whiteSpace=wrap;html=1;rounded=0;glass=0;labelBackgroundColor=none;sketch=0;align=center;" parent="NRUyum9-wbXjrjiuYs28-220" vertex="1">
          <mxGeometry x="6.25" y="10" width="80" height="20" as="geometry" />
        </mxCell>
        <mxCell id="NRUyum9-wbXjrjiuYs28-213" value="Browser" style="whiteSpace=wrap;html=1;rounded=0;glass=0;labelBackgroundColor=none;sketch=0;align=center;" parent="NRUyum9-wbXjrjiuYs28-220" vertex="1">
          <mxGeometry x="26.25" y="40" width="60" height="20" as="geometry" />
        </mxCell>
        <mxCell id="NRUyum9-wbXjrjiuYs28-218" value="Your Music" style="whiteSpace=wrap;html=1;rounded=0;glass=0;labelBackgroundColor=none;sketch=0;align=center;" parent="NRUyum9-wbXjrjiuYs28-220" vertex="1">
          <mxGeometry x="6.25" y="70" width="80" height="20" as="geometry" />
        </mxCell>
        <mxCell id="NRUyum9-wbXjrjiuYs28-219" value="Playlists" style="whiteSpace=wrap;html=1;rounded=0;glass=0;labelBackgroundColor=none;sketch=0;align=center;" parent="NRUyum9-wbXjrjiuYs28-220" vertex="1">
          <mxGeometry x="6.25" y="100" width="80" height="20" as="geometry" />
        </mxCell>
        <mxCell id="NRUyum9-wbXjrjiuYs28-221" style="edgeStyle=orthogonalEdgeStyle;rounded=1;orthogonalLoop=1;jettySize=auto;html=1;exitX=0;exitY=0.5;exitDx=0;exitDy=0;shadow=0;startArrow=oval;startFill=1;endArrow=classic;endFill=1;strokeWidth=1;fillColor=#f8cecc;strokeColor=#b85450;" parent="NRUyum9-wbXjrjiuYs28-211" source="NRUyum9-wbXjrjiuYs28-214" target="NRUyum9-wbXjrjiuYs28-18" edge="1">
          <mxGeometry relative="1" as="geometry">
            <Array as="points">
              <mxPoint x="230" y="365" />
              <mxPoint x="230" y="510" />
              <mxPoint x="920" y="510" />
              <mxPoint x="920" y="380" />
            </Array>
          </mxGeometry>
        </mxCell>
        <mxCell id="NRUyum9-wbXjrjiuYs28-20" value="Title Bar" style="locked=1;" parent="0" />
        <mxCell id="NRUyum9-wbXjrjiuYs28-26" value="" style="edgeStyle=orthogonalEdgeStyle;rounded=0;orthogonalLoop=1;jettySize=auto;html=1;exitX=1;exitY=0.5;exitDx=0;exitDy=0;fillColor=#f8cecc;strokeColor=#b85450;startArrow=oval;startFill=1;shadow=0;" parent="NRUyum9-wbXjrjiuYs28-20" target="NRUyum9-wbXjrjiuYs28-27" edge="1">
          <mxGeometry relative="1" as="geometry">
            <mxPoint x="950" y="280" as="targetPoint" />
            <mxPoint x="790" y="280" as="sourcePoint" />
          </mxGeometry>
        </mxCell>
        <mxCell id="NRUyum9-wbXjrjiuYs28-27" value="" style="whiteSpace=wrap;html=1;" parent="NRUyum9-wbXjrjiuYs28-20" vertex="1">
          <mxGeometry x="950" y="265" width="580" height="30" as="geometry" />
        </mxCell>
        <mxCell id="NRUyum9-wbXjrjiuYs28-38" style="edgeStyle=orthogonalEdgeStyle;rounded=0;orthogonalLoop=1;jettySize=auto;html=1;exitX=0.5;exitY=1;exitDx=0;exitDy=0;shadow=0;startArrow=none;startFill=0;endArrow=classic;endFill=1;" parent="NRUyum9-wbXjrjiuYs28-20" source="NRUyum9-wbXjrjiuYs28-28" target="NRUyum9-wbXjrjiuYs28-53" edge="1">
          <mxGeometry relative="1" as="geometry">
            <mxPoint x="1065.0344827586205" y="350" as="targetPoint" />
          </mxGeometry>
        </mxCell>
        <mxCell id="NRUyum9-wbXjrjiuYs28-28" value="Search" style="whiteSpace=wrap;html=1;" parent="NRUyum9-wbXjrjiuYs28-20" vertex="1">
          <mxGeometry x="960" y="270" width="120" height="20" as="geometry" />
        </mxCell>
        <mxCell id="NRUyum9-wbXjrjiuYs28-29" value="Title" style="whiteSpace=wrap;html=1;" parent="NRUyum9-wbXjrjiuYs28-20" vertex="1">
          <mxGeometry x="1180" y="270" width="120" height="20" as="geometry" />
        </mxCell>
        <mxCell id="NRUyum9-wbXjrjiuYs28-30" value="Member Info" style="whiteSpace=wrap;html=1;" parent="NRUyum9-wbXjrjiuYs28-20" vertex="1">
          <mxGeometry x="1370" y="270" width="80" height="20" as="geometry" />
        </mxCell>
        <mxCell id="NRUyum9-wbXjrjiuYs28-34" style="edgeStyle=orthogonalEdgeStyle;rounded=0;orthogonalLoop=1;jettySize=auto;html=1;exitX=0.5;exitY=0;exitDx=0;exitDy=0;" parent="NRUyum9-wbXjrjiuYs28-20" source="NRUyum9-wbXjrjiuYs28-31" target="NRUyum9-wbXjrjiuYs28-33" edge="1">
          <mxGeometry relative="1" as="geometry" />
        </mxCell>
        <mxCell id="NRUyum9-wbXjrjiuYs28-31" value="Sign out" style="whiteSpace=wrap;html=1;" parent="NRUyum9-wbXjrjiuYs28-20" vertex="1">
          <mxGeometry x="1460" y="270" width="60" height="20" as="geometry" />
        </mxCell>
        <mxCell id="NRUyum9-wbXjrjiuYs28-210" style="edgeStyle=orthogonalEdgeStyle;rounded=1;orthogonalLoop=1;jettySize=auto;html=1;exitX=0.5;exitY=0;exitDx=0;exitDy=0;shadow=0;startArrow=none;startFill=0;endArrow=classic;endFill=1;strokeWidth=1;" parent="NRUyum9-wbXjrjiuYs28-20" source="NRUyum9-wbXjrjiuYs28-33" target="NRUyum9-wbXjrjiuYs28-2" edge="1">
          <mxGeometry relative="1" as="geometry">
            <Array as="points">
              <mxPoint x="1490" y="70" />
              <mxPoint x="800" y="70" />
            </Array>
          </mxGeometry>
        </mxCell>
        <mxCell id="NRUyum9-wbXjrjiuYs28-33" value="Sign Out" style="shape=parallelogram;perimeter=parallelogramPerimeter;whiteSpace=wrap;html=1;fixedSize=1;" parent="NRUyum9-wbXjrjiuYs28-20" vertex="1">
          <mxGeometry x="1445" y="120" width="90" height="40" as="geometry" />
        </mxCell>
        <mxCell id="NRUyum9-wbXjrjiuYs28-53" value="&lt;p style=&quot;margin: 0px ; margin-top: 4px ; text-align: center ; text-decoration: underline&quot;&gt;&lt;b&gt;Search Logic&lt;/b&gt;&lt;/p&gt;&lt;hr&gt;&lt;p style=&quot;margin: 0px ; margin-left: 8px&quot;&gt;Search type&lt;/p&gt;&lt;p style=&quot;margin: 0px ; margin-left: 8px&quot;&gt;&lt;/p&gt;&lt;ul&gt;&lt;li&gt;Title&lt;/li&gt;&lt;li&gt;Playlist&lt;br&gt;&lt;/li&gt;&lt;ul&gt;&lt;li&gt;Album&lt;/li&gt;&lt;li&gt;User list&lt;/li&gt;&lt;/ul&gt;&lt;li&gt;Track&lt;br&gt;&lt;/li&gt;&lt;li&gt;Artist&lt;/li&gt;&lt;/ul&gt;&lt;p&gt;&lt;/p&gt;" style="verticalAlign=top;align=left;overflow=fill;fontSize=12;fontFamily=Helvetica;html=1;" parent="NRUyum9-wbXjrjiuYs28-20" vertex="1">
          <mxGeometry x="940" y="350" width="160" height="150" as="geometry" />
        </mxCell>
        <mxCell id="NRUyum9-wbXjrjiuYs28-56" style="edgeStyle=orthogonalEdgeStyle;rounded=1;orthogonalLoop=1;jettySize=auto;html=1;shadow=0;startArrow=none;startFill=0;endArrow=classic;endFill=1;fillColor=#f8cecc;strokeColor=#b85450;strokeWidth=1;" parent="NRUyum9-wbXjrjiuYs28-20" source="NRUyum9-wbXjrjiuYs28-53" target="NRUyum9-wbXjrjiuYs28-18" edge="1">
          <mxGeometry relative="1" as="geometry">
            <mxPoint x="840.0000000000002" y="580" as="targetPoint" />
            <mxPoint x="1100" y="590" as="sourcePoint" />
            <Array as="points">
              <mxPoint x="1020" y="540" />
              <mxPoint x="920" y="540" />
              <mxPoint x="920" y="380" />
            </Array>
          </mxGeometry>
        </mxCell>
        <mxCell id="NRUyum9-wbXjrjiuYs28-54" value="Result View" style="locked=1;" parent="0" />
        <mxCell id="NRUyum9-wbXjrjiuYs28-223" style="edgeStyle=orthogonalEdgeStyle;rounded=1;orthogonalLoop=1;jettySize=auto;html=1;shadow=0;startArrow=oval;startFill=1;endArrow=classic;endFill=1;strokeWidth=1;entryX=0.5;entryY=0;entryDx=0;entryDy=0;fillColor=#f8cecc;strokeColor=#b85450;" parent="NRUyum9-wbXjrjiuYs28-54" target="NRUyum9-wbXjrjiuYs28-222" edge="1">
          <mxGeometry relative="1" as="geometry">
            <mxPoint x="980" y="570" as="targetPoint" />
            <mxPoint x="750" y="410" as="sourcePoint" />
            <Array as="points">
              <mxPoint x="873" y="410" />
            </Array>
          </mxGeometry>
        </mxCell>
        <mxCell id="NRUyum9-wbXjrjiuYs28-225" value="" style="group" parent="NRUyum9-wbXjrjiuYs28-54" vertex="1" connectable="0">
          <mxGeometry x="780" y="610" width="185" height="230" as="geometry" />
        </mxCell>
        <mxCell id="NRUyum9-wbXjrjiuYs28-222" value="" style="whiteSpace=wrap;html=1;rounded=0;glass=0;labelBackgroundColor=none;sketch=0;align=center;" parent="NRUyum9-wbXjrjiuYs28-225" vertex="1">
          <mxGeometry x="1.6972477064220184" y="10.69767441860465" width="183.30275229357798" height="219.3023255813953" as="geometry" />
        </mxCell>
        <mxCell id="NRUyum9-wbXjrjiuYs28-224" value="Master" style="text;html=1;align=center;verticalAlign=middle;resizable=0;points=[];autosize=1;" parent="NRUyum9-wbXjrjiuYs28-225" vertex="1">
          <mxGeometry x="1.7" y="-9.3" width="50" height="20" as="geometry" />
        </mxCell>
        <mxCell id="NRUyum9-wbXjrjiuYs28-227" value="title" style="whiteSpace=wrap;html=1;rounded=0;glass=0;labelBackgroundColor=none;sketch=0;align=center;" parent="NRUyum9-wbXjrjiuYs28-225" vertex="1">
          <mxGeometry x="5.092203389830508" y="16.045882352941174" width="176.7722033898305" height="16.045882352941174" as="geometry" />
        </mxCell>
        <mxCell id="NRUyum9-wbXjrjiuYs28-228" value="Playlist" style="whiteSpace=wrap;html=1;rounded=0;glass=0;labelBackgroundColor=none;sketch=0;align=center;" parent="NRUyum9-wbXjrjiuYs28-225" vertex="1">
          <mxGeometry x="5.092203389830508" y="37.44264705882353" width="176.7722033898305" height="48.137647058823525" as="geometry" />
        </mxCell>
        <mxCell id="NRUyum9-wbXjrjiuYs28-229" value="Track" style="whiteSpace=wrap;html=1;rounded=0;glass=0;labelBackgroundColor=none;sketch=0;align=center;" parent="NRUyum9-wbXjrjiuYs28-225" vertex="1">
          <mxGeometry x="5.092203389830508" y="90.93117647058823" width="176.7722033898305" height="132.30411764705883" as="geometry" />
        </mxCell>
        <mxCell id="NRUyum9-wbXjrjiuYs28-231" value="" style="group" parent="NRUyum9-wbXjrjiuYs28-54" vertex="1" connectable="0">
          <mxGeometry x="1130" y="699.3" width="185" height="230" as="geometry" />
        </mxCell>
        <mxCell id="NRUyum9-wbXjrjiuYs28-232" value="" style="whiteSpace=wrap;html=1;rounded=0;glass=0;labelBackgroundColor=none;sketch=0;align=center;" parent="NRUyum9-wbXjrjiuYs28-231" vertex="1">
          <mxGeometry x="1.7" y="10.7" width="183.3" height="209.3" as="geometry" />
        </mxCell>
        <mxCell id="NRUyum9-wbXjrjiuYs28-233" value="detail" style="text;html=1;align=center;verticalAlign=middle;resizable=0;points=[];autosize=1;" parent="NRUyum9-wbXjrjiuYs28-231" vertex="1">
          <mxGeometry y="-9.3" width="40" height="20" as="geometry" />
        </mxCell>
        <mxCell id="NRUyum9-wbXjrjiuYs28-234" value="title" style="whiteSpace=wrap;html=1;rounded=0;glass=0;labelBackgroundColor=none;sketch=0;align=center;" parent="NRUyum9-wbXjrjiuYs28-231" vertex="1">
          <mxGeometry x="5.09" y="16.05" width="176.77" height="43.95" as="geometry" />
        </mxCell>
        <mxCell id="NRUyum9-wbXjrjiuYs28-235" value="Playlist" style="whiteSpace=wrap;html=1;rounded=0;glass=0;labelBackgroundColor=none;sketch=0;align=center;" parent="NRUyum9-wbXjrjiuYs28-231" vertex="1">
          <mxGeometry x="5.09" y="70" width="176.77" height="90" as="geometry" />
        </mxCell>
        <mxCell id="NRUyum9-wbXjrjiuYs28-236" value="Track" style="whiteSpace=wrap;html=1;rounded=0;glass=0;labelBackgroundColor=none;sketch=0;align=center;" parent="NRUyum9-wbXjrjiuYs28-231" vertex="1">
          <mxGeometry x="5.09" y="165" width="176.77" height="50" as="geometry" />
        </mxCell>
        <mxCell id="NRUyum9-wbXjrjiuYs28-237" style="edgeStyle=orthogonalEdgeStyle;rounded=1;orthogonalLoop=1;jettySize=auto;html=1;shadow=0;startArrow=none;startFill=0;endArrow=classic;endFill=1;strokeWidth=1;exitX=1;exitY=0.25;exitDx=0;exitDy=0;" parent="NRUyum9-wbXjrjiuYs28-54" source="NRUyum9-wbXjrjiuYs28-228" target="NRUyum9-wbXjrjiuYs28-232" edge="1">
          <mxGeometry relative="1" as="geometry">
            <mxPoint x="1040" y="680" as="sourcePoint" />
            <Array as="points">
              <mxPoint x="1070" y="660" />
              <mxPoint x="1313" y="660" />
            </Array>
          </mxGeometry>
        </mxCell>
        <mxCell id="NRUyum9-wbXjrjiuYs28-247" style="edgeStyle=orthogonalEdgeStyle;rounded=1;orthogonalLoop=1;jettySize=auto;html=1;exitX=0.5;exitY=1;exitDx=0;exitDy=0;shadow=0;startArrow=none;startFill=0;endArrow=classic;endFill=1;strokeWidth=1;" parent="NRUyum9-wbXjrjiuYs28-54" source="NRUyum9-wbXjrjiuYs28-239" edge="1">
          <mxGeometry relative="1" as="geometry">
            <mxPoint x="872.5714285714287" y="900.1428571428571" as="targetPoint" />
          </mxGeometry>
        </mxCell>
        <mxCell id="NRUyum9-wbXjrjiuYs28-240" style="edgeStyle=orthogonalEdgeStyle;rounded=1;orthogonalLoop=1;jettySize=auto;html=1;exitX=0.5;exitY=1;exitDx=0;exitDy=0;shadow=0;startArrow=none;startFill=0;endArrow=classic;endFill=1;strokeWidth=1;" parent="NRUyum9-wbXjrjiuYs28-54" source="NRUyum9-wbXjrjiuYs28-222" target="NRUyum9-wbXjrjiuYs28-239" edge="1">
          <mxGeometry relative="1" as="geometry" />
        </mxCell>
        <mxCell id="NRUyum9-wbXjrjiuYs28-246" style="edgeStyle=orthogonalEdgeStyle;rounded=1;orthogonalLoop=1;jettySize=auto;html=1;exitX=0.5;exitY=1;exitDx=0;exitDy=0;shadow=0;startArrow=none;startFill=0;endArrow=classic;endFill=1;strokeWidth=1;" parent="NRUyum9-wbXjrjiuYs28-54" source="NRUyum9-wbXjrjiuYs28-241" target="NRUyum9-wbXjrjiuYs28-197" edge="1">
          <mxGeometry relative="1" as="geometry">
            <Array as="points">
              <mxPoint x="846" y="990" />
              <mxPoint x="325" y="990" />
            </Array>
          </mxGeometry>
        </mxCell>
        <mxCell id="NRUyum9-wbXjrjiuYs28-245" style="edgeStyle=orthogonalEdgeStyle;rounded=1;orthogonalLoop=1;jettySize=auto;html=1;exitX=0.5;exitY=1;exitDx=0;exitDy=0;shadow=0;startArrow=none;startFill=0;endArrow=classic;endFill=1;strokeWidth=1;" parent="NRUyum9-wbXjrjiuYs28-54" source="NRUyum9-wbXjrjiuYs28-243" target="NRUyum9-wbXjrjiuYs28-232" edge="1">
          <mxGeometry relative="1" as="geometry">
            <Array as="points">
              <mxPoint x="918" y="970" />
              <mxPoint x="1050" y="970" />
              <mxPoint x="1050" y="660" />
              <mxPoint x="1223" y="660" />
            </Array>
          </mxGeometry>
        </mxCell>
        <mxCell id="NRUyum9-wbXjrjiuYs28-248" value="" style="group" parent="NRUyum9-wbXjrjiuYs28-54" vertex="1" connectable="0">
          <mxGeometry x="735" y="870" width="275" height="70" as="geometry" />
        </mxCell>
        <mxCell id="NRUyum9-wbXjrjiuYs28-239" value="아이템 선택" style="whiteSpace=wrap;html=1;rounded=0;glass=0;labelBackgroundColor=none;sketch=0;align=center;" parent="NRUyum9-wbXjrjiuYs28-248" vertex="1">
          <mxGeometry width="275" height="30" as="geometry" />
        </mxCell>
        <mxCell id="NRUyum9-wbXjrjiuYs28-241" value="제목" style="whiteSpace=wrap;html=1;rounded=0;glass=0;labelBackgroundColor=none;sketch=0;align=center;" parent="NRUyum9-wbXjrjiuYs28-248" vertex="1">
          <mxGeometry x="85" y="40" width="51.25" height="30" as="geometry" />
        </mxCell>
        <mxCell id="NRUyum9-wbXjrjiuYs28-243" value="앨범, 아티스트" style="whiteSpace=wrap;html=1;rounded=0;glass=0;labelBackgroundColor=none;sketch=0;align=center;" parent="NRUyum9-wbXjrjiuYs28-248" vertex="1">
          <mxGeometry x="145" y="40" width="75" height="30" as="geometry" />
        </mxCell>
        <mxCell id="NRUyum9-wbXjrjiuYs28-244" value="플레이리스트 추가" style="whiteSpace=wrap;html=1;rounded=0;glass=0;labelBackgroundColor=none;sketch=0;align=center;" parent="NRUyum9-wbXjrjiuYs28-248" vertex="1">
          <mxGeometry y="40" width="75" height="30" as="geometry" />
        </mxCell>
        <mxCell id="NRUyum9-wbXjrjiuYs28-258" value="시간" style="whiteSpace=wrap;html=1;rounded=0;glass=0;labelBackgroundColor=none;sketch=0;align=center;" parent="NRUyum9-wbXjrjiuYs28-248" vertex="1">
          <mxGeometry x="225" y="40" width="50" height="30" as="geometry" />
        </mxCell>
        <mxCell id="NRUyum9-wbXjrjiuYs28-254" value="" style="group" parent="NRUyum9-wbXjrjiuYs28-54" vertex="1" connectable="0">
          <mxGeometry x="1420" y="690" width="220" height="100" as="geometry" />
        </mxCell>
        <mxCell id="NRUyum9-wbXjrjiuYs28-249" value="" style="whiteSpace=wrap;html=1;rounded=0;glass=0;labelBackgroundColor=none;sketch=0;align=center;" parent="NRUyum9-wbXjrjiuYs28-254" vertex="1">
          <mxGeometry width="220" height="100" as="geometry" />
        </mxCell>
        <mxCell id="NRUyum9-wbXjrjiuYs28-250" value="Photo" style="whiteSpace=wrap;html=1;rounded=0;glass=0;labelBackgroundColor=none;sketch=0;align=center;" parent="NRUyum9-wbXjrjiuYs28-254" vertex="1">
          <mxGeometry x="10" y="10" width="80" height="80" as="geometry" />
        </mxCell>
        <mxCell id="NRUyum9-wbXjrjiuYs28-251" value="Type&lt;br&gt;Title&lt;br&gt;info...etc" style="whiteSpace=wrap;html=1;rounded=0;glass=0;labelBackgroundColor=none;sketch=0;align=left;spacingLeft=4;" parent="NRUyum9-wbXjrjiuYs28-254" vertex="1">
          <mxGeometry x="100" y="10" width="110" height="50" as="geometry" />
        </mxCell>
        <mxCell id="NRUyum9-wbXjrjiuYs28-252" value="Play All" style="whiteSpace=wrap;html=1;rounded=0;glass=0;labelBackgroundColor=none;sketch=0;align=center;" parent="NRUyum9-wbXjrjiuYs28-254" vertex="1">
          <mxGeometry x="100" y="70" width="50" height="20" as="geometry" />
        </mxCell>
        <mxCell id="NRUyum9-wbXjrjiuYs28-253" value="Follow" style="whiteSpace=wrap;html=1;rounded=0;glass=0;labelBackgroundColor=none;sketch=0;align=center;" parent="NRUyum9-wbXjrjiuYs28-254" vertex="1">
          <mxGeometry x="160" y="70" width="50" height="20" as="geometry" />
        </mxCell>
        <mxCell id="NRUyum9-wbXjrjiuYs28-255" style="edgeStyle=orthogonalEdgeStyle;rounded=1;orthogonalLoop=1;jettySize=auto;html=1;exitX=1;exitY=0.5;exitDx=0;exitDy=0;shadow=0;startArrow=none;startFill=0;endArrow=classic;endFill=1;strokeWidth=1;" parent="NRUyum9-wbXjrjiuYs28-54" source="NRUyum9-wbXjrjiuYs28-234" target="NRUyum9-wbXjrjiuYs28-249" edge="1">
          <mxGeometry relative="1" as="geometry">
            <Array as="points">
              <mxPoint x="1360" y="737" />
              <mxPoint x="1360" y="660" />
              <mxPoint x="1530" y="660" />
            </Array>
          </mxGeometry>
        </mxCell>
        <mxCell id="NRUyum9-wbXjrjiuYs28-257" style="edgeStyle=orthogonalEdgeStyle;rounded=1;orthogonalLoop=1;jettySize=auto;html=1;exitX=1;exitY=0.5;exitDx=0;exitDy=0;shadow=0;startArrow=none;startFill=0;endArrow=classic;endFill=1;strokeWidth=1;" parent="NRUyum9-wbXjrjiuYs28-54" source="NRUyum9-wbXjrjiuYs28-235" target="NRUyum9-wbXjrjiuYs28-260" edge="1">
          <mxGeometry relative="1" as="geometry">
            <mxPoint x="1420" y="814.2758620689656" as="targetPoint" />
            <Array as="points">
              <mxPoint x="1558" y="814" />
            </Array>
          </mxGeometry>
        </mxCell>
        <mxCell id="NRUyum9-wbXjrjiuYs28-259" value="" style="group" parent="NRUyum9-wbXjrjiuYs28-54" vertex="1" connectable="0">
          <mxGeometry x="1420" y="840" width="275" height="70" as="geometry" />
        </mxCell>
        <mxCell id="NRUyum9-wbXjrjiuYs28-260" value="아이템 선택" style="whiteSpace=wrap;html=1;rounded=0;glass=0;labelBackgroundColor=none;sketch=0;align=center;" parent="NRUyum9-wbXjrjiuYs28-259" vertex="1">
          <mxGeometry width="275" height="30" as="geometry" />
        </mxCell>
        <mxCell id="NRUyum9-wbXjrjiuYs28-261" value="제목" style="whiteSpace=wrap;html=1;rounded=0;glass=0;labelBackgroundColor=none;sketch=0;align=center;" parent="NRUyum9-wbXjrjiuYs28-259" vertex="1">
          <mxGeometry x="85" y="40" width="51.25" height="30" as="geometry" />
        </mxCell>
        <mxCell id="NRUyum9-wbXjrjiuYs28-262" value="앨범, 아티스트" style="whiteSpace=wrap;html=1;rounded=0;glass=0;labelBackgroundColor=none;sketch=0;align=center;" parent="NRUyum9-wbXjrjiuYs28-259" vertex="1">
          <mxGeometry x="145" y="40" width="75" height="30" as="geometry" />
        </mxCell>
        <mxCell id="NRUyum9-wbXjrjiuYs28-263" value="플레이리스트 추가" style="whiteSpace=wrap;html=1;rounded=0;glass=0;labelBackgroundColor=none;sketch=0;align=center;" parent="NRUyum9-wbXjrjiuYs28-259" vertex="1">
          <mxGeometry y="40" width="75" height="30" as="geometry" />
        </mxCell>
        <mxCell id="NRUyum9-wbXjrjiuYs28-264" value="시간" style="whiteSpace=wrap;html=1;rounded=0;glass=0;labelBackgroundColor=none;sketch=0;align=center;" parent="NRUyum9-wbXjrjiuYs28-259" vertex="1">
          <mxGeometry x="225" y="40" width="50" height="30" as="geometry" />
        </mxCell>
        <mxCell id="NRUyum9-wbXjrjiuYs28-265" style="edgeStyle=orthogonalEdgeStyle;rounded=1;orthogonalLoop=1;jettySize=auto;html=1;exitX=0.5;exitY=1;exitDx=0;exitDy=0;shadow=0;startArrow=none;startFill=0;endArrow=classic;endFill=1;strokeWidth=1;" parent="NRUyum9-wbXjrjiuYs28-54" source="NRUyum9-wbXjrjiuYs28-261" target="NRUyum9-wbXjrjiuYs28-197" edge="1">
          <mxGeometry relative="1" as="geometry">
            <Array as="points">
              <mxPoint x="1531" y="990" />
              <mxPoint x="325" y="990" />
            </Array>
          </mxGeometry>
        </mxCell>
        <mxCell id="NRUyum9-wbXjrjiuYs28-266" style="edgeStyle=orthogonalEdgeStyle;rounded=1;orthogonalLoop=1;jettySize=auto;html=1;exitX=0.5;exitY=1;exitDx=0;exitDy=0;entryX=0.5;entryY=0;entryDx=0;entryDy=0;shadow=0;startArrow=none;startFill=0;endArrow=classic;endFill=1;strokeWidth=1;" parent="NRUyum9-wbXjrjiuYs28-54" source="NRUyum9-wbXjrjiuYs28-262" target="NRUyum9-wbXjrjiuYs28-232" edge="1">
          <mxGeometry relative="1" as="geometry">
            <Array as="points">
              <mxPoint x="1603" y="970" />
              <mxPoint x="1050" y="970" />
              <mxPoint x="1050" y="660" />
              <mxPoint x="1223" y="660" />
            </Array>
          </mxGeometry>
        </mxCell>
        <mxCell id="NRUyum9-wbXjrjiuYs28-270" value="" style="group" parent="NRUyum9-wbXjrjiuYs28-54" vertex="1" connectable="0">
          <mxGeometry x="1038.48" y="1020" width="370" height="240" as="geometry" />
        </mxCell>
        <mxCell id="NRUyum9-wbXjrjiuYs28-267" value="" style="whiteSpace=wrap;html=1;rounded=0;glass=0;labelBackgroundColor=none;sketch=0;align=center;fillColor=none;" parent="NRUyum9-wbXjrjiuYs28-270" vertex="1">
          <mxGeometry x="120" width="250" height="190" as="geometry" />
        </mxCell>
        <mxCell id="NRUyum9-wbXjrjiuYs28-273" style="edgeStyle=orthogonalEdgeStyle;rounded=1;orthogonalLoop=1;jettySize=auto;html=1;exitX=1;exitY=0.5;exitDx=0;exitDy=0;shadow=0;startArrow=none;startFill=0;endArrow=classic;endFill=1;strokeWidth=1;" parent="NRUyum9-wbXjrjiuYs28-270" source="NRUyum9-wbXjrjiuYs28-268" target="NRUyum9-wbXjrjiuYs28-272" edge="1">
          <mxGeometry relative="1" as="geometry" />
        </mxCell>
        <mxCell id="NRUyum9-wbXjrjiuYs28-276" style="edgeStyle=orthogonalEdgeStyle;rounded=1;orthogonalLoop=1;jettySize=auto;html=1;exitX=0.5;exitY=1;exitDx=0;exitDy=0;shadow=0;startArrow=none;startFill=0;endArrow=classic;endFill=1;strokeWidth=1;" parent="NRUyum9-wbXjrjiuYs28-270" source="NRUyum9-wbXjrjiuYs28-268" target="NRUyum9-wbXjrjiuYs28-275" edge="1">
          <mxGeometry relative="1" as="geometry" />
        </mxCell>
        <mxCell id="NRUyum9-wbXjrjiuYs28-268" value="Artist" style="rhombus;whiteSpace=wrap;html=1;rounded=0;glass=0;labelBackgroundColor=none;sketch=0;align=center;" parent="NRUyum9-wbXjrjiuYs28-270" vertex="1">
          <mxGeometry x="130" y="30" width="110" height="60" as="geometry" />
        </mxCell>
        <mxCell id="NRUyum9-wbXjrjiuYs28-272" value="Hidden" style="whiteSpace=wrap;html=1;rounded=0;glass=0;labelBackgroundColor=none;sketch=0;align=center;" parent="NRUyum9-wbXjrjiuYs28-270" vertex="1">
          <mxGeometry x="281.52" y="40" width="80" height="40" as="geometry" />
        </mxCell>
        <mxCell id="NRUyum9-wbXjrjiuYs28-275" value="List View" style="whiteSpace=wrap;html=1;rounded=0;glass=0;labelBackgroundColor=none;sketch=0;align=center;" parent="NRUyum9-wbXjrjiuYs28-270" vertex="1">
          <mxGeometry x="140" y="120" width="90" height="50" as="geometry" />
        </mxCell>
        <mxCell id="NRUyum9-wbXjrjiuYs28-271" style="edgeStyle=orthogonalEdgeStyle;rounded=1;orthogonalLoop=1;jettySize=auto;html=1;exitX=0.5;exitY=1;exitDx=0;exitDy=0;shadow=0;startArrow=none;startFill=0;endArrow=classic;endFill=1;strokeWidth=1;" parent="NRUyum9-wbXjrjiuYs28-54" source="NRUyum9-wbXjrjiuYs28-236" target="NRUyum9-wbXjrjiuYs28-268" edge="1">
          <mxGeometry relative="1" as="geometry" />
        </mxCell>
        <mxCell id="NRUyum9-wbXjrjiuYs28-277" style="edgeStyle=orthogonalEdgeStyle;rounded=1;orthogonalLoop=1;jettySize=auto;html=1;exitX=0.5;exitY=1;exitDx=0;exitDy=0;shadow=0;startArrow=none;startFill=0;endArrow=classic;endFill=1;strokeWidth=1;" parent="NRUyum9-wbXjrjiuYs28-54" source="NRUyum9-wbXjrjiuYs28-275" target="NRUyum9-wbXjrjiuYs28-249" edge="1">
          <mxGeometry relative="1" as="geometry">
            <Array as="points">
              <mxPoint x="1224" y="1240" />
              <mxPoint x="1730" y="1240" />
              <mxPoint x="1730" y="660" />
              <mxPoint x="1530" y="660" />
            </Array>
          </mxGeometry>
        </mxCell>
        <mxCell id="NRUyum9-wbXjrjiuYs28-57" value="Player Bar" style="locked=1;" parent="0" />
        <mxCell id="NRUyum9-wbXjrjiuYs28-58" value="" style="whiteSpace=wrap;html=1;" parent="NRUyum9-wbXjrjiuYs28-57" vertex="1">
          <mxGeometry x="170" y="555" width="550" height="30" as="geometry" />
        </mxCell>
        <mxCell id="NRUyum9-wbXjrjiuYs28-59" style="edgeStyle=orthogonalEdgeStyle;rounded=1;orthogonalLoop=1;jettySize=auto;html=1;exitX=0.5;exitY=1;exitDx=0;exitDy=0;shadow=0;startArrow=none;startFill=0;endArrow=classic;endFill=1;strokeWidth=1;fillColor=#f8cecc;strokeColor=#b85450;" parent="NRUyum9-wbXjrjiuYs28-57" source="NRUyum9-wbXjrjiuYs28-19" target="NRUyum9-wbXjrjiuYs28-58" edge="1">
          <mxGeometry relative="1" as="geometry" />
        </mxCell>
        <mxCell id="NRUyum9-wbXjrjiuYs28-68" style="edgeStyle=orthogonalEdgeStyle;rounded=1;orthogonalLoop=1;jettySize=auto;html=1;exitX=0.5;exitY=1;exitDx=0;exitDy=0;shadow=0;startArrow=none;startFill=0;endArrow=classic;endFill=1;strokeWidth=1;" parent="NRUyum9-wbXjrjiuYs28-57" source="NRUyum9-wbXjrjiuYs28-60" target="NRUyum9-wbXjrjiuYs28-66" edge="1">
          <mxGeometry relative="1" as="geometry" />
        </mxCell>
        <mxCell id="NRUyum9-wbXjrjiuYs28-69" style="edgeStyle=orthogonalEdgeStyle;rounded=1;orthogonalLoop=1;jettySize=auto;html=1;exitX=0.5;exitY=1;exitDx=0;exitDy=0;shadow=0;startArrow=none;startFill=0;endArrow=classic;endFill=1;strokeWidth=1;" parent="NRUyum9-wbXjrjiuYs28-57" source="NRUyum9-wbXjrjiuYs28-60" target="NRUyum9-wbXjrjiuYs28-65" edge="1">
          <mxGeometry relative="1" as="geometry" />
        </mxCell>
        <mxCell id="NRUyum9-wbXjrjiuYs28-70" style="edgeStyle=orthogonalEdgeStyle;rounded=1;orthogonalLoop=1;jettySize=auto;html=1;exitX=0.5;exitY=1;exitDx=0;exitDy=0;shadow=0;startArrow=none;startFill=0;endArrow=classic;endFill=1;strokeWidth=1;" parent="NRUyum9-wbXjrjiuYs28-57" source="NRUyum9-wbXjrjiuYs28-60" target="NRUyum9-wbXjrjiuYs28-67" edge="1">
          <mxGeometry relative="1" as="geometry" />
        </mxCell>
        <mxCell id="NRUyum9-wbXjrjiuYs28-60" value="Controller" style="whiteSpace=wrap;html=1;" parent="NRUyum9-wbXjrjiuYs28-57" vertex="1">
          <mxGeometry x="180" y="560" width="120" height="20" as="geometry" />
        </mxCell>
        <mxCell id="NRUyum9-wbXjrjiuYs28-74" style="edgeStyle=orthogonalEdgeStyle;rounded=1;orthogonalLoop=1;jettySize=auto;html=1;exitX=0.5;exitY=1;exitDx=0;exitDy=0;shadow=0;startArrow=none;startFill=0;endArrow=classic;endFill=1;strokeWidth=1;" parent="NRUyum9-wbXjrjiuYs28-57" source="NRUyum9-wbXjrjiuYs28-62" target="NRUyum9-wbXjrjiuYs28-71" edge="1">
          <mxGeometry relative="1" as="geometry" />
        </mxCell>
        <mxCell id="NRUyum9-wbXjrjiuYs28-75" style="edgeStyle=orthogonalEdgeStyle;rounded=1;orthogonalLoop=1;jettySize=auto;html=1;exitX=0.5;exitY=1;exitDx=0;exitDy=0;shadow=0;startArrow=none;startFill=0;endArrow=classic;endFill=1;strokeWidth=1;" parent="NRUyum9-wbXjrjiuYs28-57" source="NRUyum9-wbXjrjiuYs28-62" target="NRUyum9-wbXjrjiuYs28-72" edge="1">
          <mxGeometry relative="1" as="geometry" />
        </mxCell>
        <mxCell id="NRUyum9-wbXjrjiuYs28-76" style="edgeStyle=orthogonalEdgeStyle;rounded=1;orthogonalLoop=1;jettySize=auto;html=1;exitX=0.5;exitY=1;exitDx=0;exitDy=0;shadow=0;startArrow=none;startFill=0;endArrow=classic;endFill=1;strokeWidth=1;" parent="NRUyum9-wbXjrjiuYs28-57" source="NRUyum9-wbXjrjiuYs28-62" target="NRUyum9-wbXjrjiuYs28-73" edge="1">
          <mxGeometry relative="1" as="geometry" />
        </mxCell>
        <mxCell id="NRUyum9-wbXjrjiuYs28-62" value="Track Controller" style="whiteSpace=wrap;html=1;" parent="NRUyum9-wbXjrjiuYs28-57" vertex="1">
          <mxGeometry x="310" y="560" width="400" height="20" as="geometry" />
        </mxCell>
        <mxCell id="NRUyum9-wbXjrjiuYs28-102" style="edgeStyle=orthogonalEdgeStyle;rounded=1;orthogonalLoop=1;jettySize=auto;html=1;exitX=0.5;exitY=1;exitDx=0;exitDy=0;shadow=0;startArrow=none;startFill=0;endArrow=classic;endFill=1;strokeWidth=1;" parent="NRUyum9-wbXjrjiuYs28-57" source="NRUyum9-wbXjrjiuYs28-65" target="NRUyum9-wbXjrjiuYs28-77" edge="1">
          <mxGeometry relative="1" as="geometry" />
        </mxCell>
        <mxCell id="NRUyum9-wbXjrjiuYs28-65" value="Back" style="rounded=1;whiteSpace=wrap;html=1;" parent="NRUyum9-wbXjrjiuYs28-57" vertex="1">
          <mxGeometry x="110" y="620" width="50" height="30" as="geometry" />
        </mxCell>
        <mxCell id="NRUyum9-wbXjrjiuYs28-146" style="edgeStyle=orthogonalEdgeStyle;rounded=1;orthogonalLoop=1;jettySize=auto;html=1;exitX=0.5;exitY=1;exitDx=0;exitDy=0;shadow=0;startArrow=none;startFill=0;endArrow=classic;endFill=1;strokeWidth=1;" parent="NRUyum9-wbXjrjiuYs28-57" source="NRUyum9-wbXjrjiuYs28-66" target="NRUyum9-wbXjrjiuYs28-135" edge="1">
          <mxGeometry relative="1" as="geometry" />
        </mxCell>
        <mxCell id="NRUyum9-wbXjrjiuYs28-66" value="Play Controller" style="rounded=1;whiteSpace=wrap;html=1;" parent="NRUyum9-wbXjrjiuYs28-57" vertex="1">
          <mxGeometry x="170" y="620" width="70" height="30" as="geometry" />
        </mxCell>
        <mxCell id="NRUyum9-wbXjrjiuYs28-157" style="edgeStyle=orthogonalEdgeStyle;rounded=1;orthogonalLoop=1;jettySize=auto;html=1;exitX=0.5;exitY=1;exitDx=0;exitDy=0;shadow=0;startArrow=none;startFill=0;endArrow=classic;endFill=1;strokeWidth=1;" parent="NRUyum9-wbXjrjiuYs28-57" source="NRUyum9-wbXjrjiuYs28-67" target="NRUyum9-wbXjrjiuYs28-139" edge="1">
          <mxGeometry relative="1" as="geometry" />
        </mxCell>
        <mxCell id="NRUyum9-wbXjrjiuYs28-67" value="Front" style="rounded=1;whiteSpace=wrap;html=1;" parent="NRUyum9-wbXjrjiuYs28-57" vertex="1">
          <mxGeometry x="250" y="620" width="50" height="30" as="geometry" />
        </mxCell>
        <mxCell id="NRUyum9-wbXjrjiuYs28-71" value="Current Time" style="rounded=1;whiteSpace=wrap;html=1;" parent="NRUyum9-wbXjrjiuYs28-57" vertex="1">
          <mxGeometry x="370" y="620" width="50" height="30" as="geometry" />
        </mxCell>
        <mxCell id="NRUyum9-wbXjrjiuYs28-72" value="Total Time" style="rounded=1;whiteSpace=wrap;html=1;" parent="NRUyum9-wbXjrjiuYs28-57" vertex="1">
          <mxGeometry x="660" y="620" width="50" height="30" as="geometry" />
        </mxCell>
        <mxCell id="NRUyum9-wbXjrjiuYs28-188" style="edgeStyle=orthogonalEdgeStyle;rounded=1;orthogonalLoop=1;jettySize=auto;html=1;exitX=0.5;exitY=1;exitDx=0;exitDy=0;shadow=0;startArrow=none;startFill=0;endArrow=classic;endFill=1;strokeWidth=1;" parent="NRUyum9-wbXjrjiuYs28-57" source="NRUyum9-wbXjrjiuYs28-73" target="NRUyum9-wbXjrjiuYs28-187" edge="1">
          <mxGeometry relative="1" as="geometry" />
        </mxCell>
        <mxCell id="NRUyum9-wbXjrjiuYs28-73" value="Track bar" style="rounded=1;whiteSpace=wrap;html=1;" parent="NRUyum9-wbXjrjiuYs28-57" vertex="1">
          <mxGeometry x="430" y="620" width="220" height="30" as="geometry" />
        </mxCell>
        <mxCell id="NRUyum9-wbXjrjiuYs28-203" style="edgeStyle=orthogonalEdgeStyle;rounded=1;orthogonalLoop=1;jettySize=auto;html=1;exitX=0.5;exitY=1;exitDx=0;exitDy=0;shadow=0;startArrow=none;startFill=0;endArrow=classic;endFill=1;strokeWidth=1;" parent="NRUyum9-wbXjrjiuYs28-57" source="NRUyum9-wbXjrjiuYs28-77" target="NRUyum9-wbXjrjiuYs28-197" edge="1">
          <mxGeometry relative="1" as="geometry">
            <Array as="points">
              <mxPoint x="135" y="860" />
              <mxPoint x="325" y="860" />
            </Array>
          </mxGeometry>
        </mxCell>
        <mxCell id="NRUyum9-wbXjrjiuYs28-77" value="Back Logic" style="swimlane;html=1;startSize=20;horizontal=1;containerType=tree;" parent="NRUyum9-wbXjrjiuYs28-57" vertex="1" collapsed="1">
          <mxGeometry x="70" y="670" width="120" height="20" as="geometry">
            <mxRectangle x="-350" y="610" width="390" height="300" as="alternateBounds" />
          </mxGeometry>
        </mxCell>
        <mxCell id="NRUyum9-wbXjrjiuYs28-83" style="edgeStyle=orthogonalEdgeStyle;rounded=1;orthogonalLoop=1;jettySize=auto;html=1;exitX=0.5;exitY=0;exitDx=0;exitDy=0;entryX=0.217;entryY=0.063;entryDx=0;entryDy=0;entryPerimeter=0;shadow=0;startArrow=open;startFill=0;endArrow=none;endFill=0;strokeWidth=1;" parent="NRUyum9-wbXjrjiuYs28-77" source="NRUyum9-wbXjrjiuYs28-81" target="NRUyum9-wbXjrjiuYs28-77" edge="1">
          <mxGeometry relative="1" as="geometry" />
        </mxCell>
        <mxCell id="NRUyum9-wbXjrjiuYs28-85" style="edgeStyle=orthogonalEdgeStyle;rounded=1;orthogonalLoop=1;jettySize=auto;html=1;exitX=1;exitY=0.5;exitDx=0;exitDy=0;shadow=0;startArrow=none;startFill=0;endArrow=openThin;endFill=0;strokeWidth=1;" parent="NRUyum9-wbXjrjiuYs28-77" source="NRUyum9-wbXjrjiuYs28-81" target="NRUyum9-wbXjrjiuYs28-84" edge="1">
          <mxGeometry relative="1" as="geometry" />
        </mxCell>
        <mxCell id="NRUyum9-wbXjrjiuYs28-97" style="edgeStyle=orthogonalEdgeStyle;rounded=1;orthogonalLoop=1;jettySize=auto;html=1;exitX=0.5;exitY=1;exitDx=0;exitDy=0;shadow=0;startArrow=none;startFill=0;endArrow=openThin;endFill=0;strokeWidth=1;" parent="NRUyum9-wbXjrjiuYs28-77" source="NRUyum9-wbXjrjiuYs28-81" target="NRUyum9-wbXjrjiuYs28-96" edge="1">
          <mxGeometry relative="1" as="geometry" />
        </mxCell>
        <mxCell id="NRUyum9-wbXjrjiuYs28-81" value="Current Time &amp;gt; 1s" style="rhombus;whiteSpace=wrap;html=1;rounded=0;glass=0;sketch=0;" parent="NRUyum9-wbXjrjiuYs28-77" vertex="1">
          <mxGeometry x="20" y="50" width="130" height="50" as="geometry" />
        </mxCell>
        <mxCell id="NRUyum9-wbXjrjiuYs28-88" style="edgeStyle=orthogonalEdgeStyle;rounded=1;orthogonalLoop=1;jettySize=auto;html=1;exitX=0.5;exitY=1;exitDx=0;exitDy=0;shadow=0;startArrow=none;startFill=0;endArrow=openThin;endFill=0;strokeWidth=1;" parent="NRUyum9-wbXjrjiuYs28-77" source="NRUyum9-wbXjrjiuYs28-84" target="NRUyum9-wbXjrjiuYs28-87" edge="1">
          <mxGeometry relative="1" as="geometry" />
        </mxCell>
        <mxCell id="NRUyum9-wbXjrjiuYs28-84" value="전 노래 가지고 오기" style="shape=parallelogram;perimeter=parallelogramPerimeter;whiteSpace=wrap;html=1;fixedSize=1;rounded=0;glass=0;sketch=0;" parent="NRUyum9-wbXjrjiuYs28-77" vertex="1">
          <mxGeometry x="170" y="57.5" width="150" height="35" as="geometry" />
        </mxCell>
        <mxCell id="NRUyum9-wbXjrjiuYs28-100" style="edgeStyle=orthogonalEdgeStyle;rounded=1;orthogonalLoop=1;jettySize=auto;html=1;exitX=0.5;exitY=1;exitDx=0;exitDy=0;shadow=0;startArrow=none;startFill=0;endArrow=openThin;endFill=0;strokeWidth=1;" parent="NRUyum9-wbXjrjiuYs28-77" source="NRUyum9-wbXjrjiuYs28-87" target="NRUyum9-wbXjrjiuYs28-98" edge="1">
          <mxGeometry relative="1" as="geometry" />
        </mxCell>
        <mxCell id="NRUyum9-wbXjrjiuYs28-87" value="이전 노래가 없다면?" style="whiteSpace=wrap;html=1;rounded=0;glass=0;sketch=0;" parent="NRUyum9-wbXjrjiuYs28-77" vertex="1">
          <mxGeometry x="170" y="110" width="150" height="20" as="geometry" />
        </mxCell>
        <mxCell id="NRUyum9-wbXjrjiuYs28-92" value="??" style="text;html=1;align=center;verticalAlign=middle;resizable=0;points=[];autosize=1;" parent="NRUyum9-wbXjrjiuYs28-77" vertex="1">
          <mxGeometry x="350" y="110" width="30" height="20" as="geometry" />
        </mxCell>
        <mxCell id="NRUyum9-wbXjrjiuYs28-91" style="edgeStyle=orthogonalEdgeStyle;rounded=1;orthogonalLoop=1;jettySize=auto;html=1;exitX=1;exitY=0.5;exitDx=0;exitDy=0;shadow=0;startArrow=none;startFill=0;endArrow=openThin;endFill=0;strokeWidth=1;" parent="NRUyum9-wbXjrjiuYs28-77" source="NRUyum9-wbXjrjiuYs28-87" target="NRUyum9-wbXjrjiuYs28-92" edge="1">
          <mxGeometry relative="1" as="geometry">
            <mxPoint x="360" y="120.27586206896558" as="targetPoint" />
          </mxGeometry>
        </mxCell>
        <mxCell id="NRUyum9-wbXjrjiuYs28-99" style="edgeStyle=orthogonalEdgeStyle;rounded=1;orthogonalLoop=1;jettySize=auto;html=1;exitX=0.5;exitY=1;exitDx=0;exitDy=0;shadow=0;startArrow=none;startFill=0;endArrow=openThin;endFill=0;strokeWidth=1;" parent="NRUyum9-wbXjrjiuYs28-77" source="NRUyum9-wbXjrjiuYs28-96" target="NRUyum9-wbXjrjiuYs28-98" edge="1">
          <mxGeometry relative="1" as="geometry" />
        </mxCell>
        <mxCell id="NRUyum9-wbXjrjiuYs28-96" value="0s 로 세팅하기" style="whiteSpace=wrap;html=1;rounded=0;glass=0;sketch=0;" parent="NRUyum9-wbXjrjiuYs28-77" vertex="1">
          <mxGeometry x="40" y="150" width="90" height="30" as="geometry" />
        </mxCell>
        <mxCell id="NRUyum9-wbXjrjiuYs28-98" value="실행하기" style="whiteSpace=wrap;html=1;rounded=0;glass=0;sketch=0;" parent="NRUyum9-wbXjrjiuYs28-77" vertex="1">
          <mxGeometry x="200" y="220" width="90" height="40" as="geometry" />
        </mxCell>
        <mxCell id="NRUyum9-wbXjrjiuYs28-101" style="edgeStyle=orthogonalEdgeStyle;rounded=1;orthogonalLoop=1;jettySize=auto;html=1;exitX=0.5;exitY=1;exitDx=0;exitDy=0;shadow=0;startArrow=none;startFill=0;endArrow=openThin;endFill=0;strokeWidth=1;entryX=0.5;entryY=1;entryDx=0;entryDy=0;" parent="NRUyum9-wbXjrjiuYs28-77" source="NRUyum9-wbXjrjiuYs28-98" target="NRUyum9-wbXjrjiuYs28-77" edge="1">
          <mxGeometry relative="1" as="geometry">
            <mxPoint x="245.2413793103451" y="290" as="targetPoint" />
            <Array as="points">
              <mxPoint x="245" y="280" />
              <mxPoint x="195" y="280" />
            </Array>
          </mxGeometry>
        </mxCell>
        <mxCell id="NRUyum9-wbXjrjiuYs28-196" style="edgeStyle=orthogonalEdgeStyle;rounded=1;orthogonalLoop=1;jettySize=auto;html=1;exitX=0.5;exitY=1;exitDx=0;exitDy=0;shadow=0;startArrow=none;startFill=0;endArrow=classic;endFill=1;strokeWidth=1;" parent="NRUyum9-wbXjrjiuYs28-57" source="NRUyum9-wbXjrjiuYs28-135" target="NRUyum9-wbXjrjiuYs28-195" edge="1">
          <mxGeometry relative="1" as="geometry" />
        </mxCell>
        <mxCell id="NRUyum9-wbXjrjiuYs28-135" value="Play / Pause" style="swimlane;html=1;startSize=20;horizontal=1;containerType=tree;rounded=0;glass=0;sketch=0;" parent="NRUyum9-wbXjrjiuYs28-57" vertex="1" collapsed="1">
          <mxGeometry x="155" y="710" width="100" height="20" as="geometry">
            <mxRectangle x="120" y="800" width="250" height="190" as="alternateBounds" />
          </mxGeometry>
        </mxCell>
        <mxCell id="NRUyum9-wbXjrjiuYs28-141" style="edgeStyle=orthogonalEdgeStyle;rounded=1;orthogonalLoop=1;jettySize=auto;html=1;exitX=0.5;exitY=0;exitDx=0;exitDy=0;shadow=0;startArrow=classic;startFill=1;endArrow=none;endFill=0;strokeWidth=1;entryX=0.319;entryY=0.117;entryDx=0;entryDy=0;entryPerimeter=0;" parent="NRUyum9-wbXjrjiuYs28-135" source="NRUyum9-wbXjrjiuYs28-140" target="NRUyum9-wbXjrjiuYs28-135" edge="1">
          <mxGeometry relative="1" as="geometry">
            <mxPoint x="220" y="70" as="targetPoint" />
            <Array as="points">
              <mxPoint x="80" y="30" />
              <mxPoint x="80" y="30" />
            </Array>
          </mxGeometry>
        </mxCell>
        <mxCell id="NRUyum9-wbXjrjiuYs28-144" style="edgeStyle=orthogonalEdgeStyle;rounded=1;orthogonalLoop=1;jettySize=auto;html=1;exitX=0.5;exitY=1;exitDx=0;exitDy=0;shadow=0;startArrow=none;startFill=0;endArrow=classic;endFill=1;strokeWidth=1;" parent="NRUyum9-wbXjrjiuYs28-135" source="NRUyum9-wbXjrjiuYs28-140" target="NRUyum9-wbXjrjiuYs28-142" edge="1">
          <mxGeometry relative="1" as="geometry" />
        </mxCell>
        <mxCell id="NRUyum9-wbXjrjiuYs28-145" style="edgeStyle=orthogonalEdgeStyle;rounded=1;orthogonalLoop=1;jettySize=auto;html=1;exitX=1;exitY=0.5;exitDx=0;exitDy=0;shadow=0;startArrow=none;startFill=0;endArrow=classic;endFill=1;strokeWidth=1;" parent="NRUyum9-wbXjrjiuYs28-135" source="NRUyum9-wbXjrjiuYs28-140" target="NRUyum9-wbXjrjiuYs28-143" edge="1">
          <mxGeometry relative="1" as="geometry" />
        </mxCell>
        <mxCell id="NRUyum9-wbXjrjiuYs28-140" value="Status&lt;br&gt;Play / Pause" style="rhombus;whiteSpace=wrap;html=1;rounded=0;glass=0;sketch=0;" parent="NRUyum9-wbXjrjiuYs28-135" vertex="1">
          <mxGeometry x="10" y="40" width="140" height="50" as="geometry" />
        </mxCell>
        <mxCell id="NRUyum9-wbXjrjiuYs28-194" style="edgeStyle=orthogonalEdgeStyle;rounded=1;orthogonalLoop=1;jettySize=auto;html=1;exitX=0.5;exitY=1;exitDx=0;exitDy=0;entryX=0.5;entryY=1;entryDx=0;entryDy=0;shadow=0;startArrow=none;startFill=0;endArrow=classic;endFill=1;strokeWidth=1;" parent="NRUyum9-wbXjrjiuYs28-135" source="NRUyum9-wbXjrjiuYs28-142" target="NRUyum9-wbXjrjiuYs28-135" edge="1">
          <mxGeometry relative="1" as="geometry">
            <Array as="points">
              <mxPoint x="80" y="170" />
              <mxPoint x="125" y="170" />
            </Array>
          </mxGeometry>
        </mxCell>
        <mxCell id="NRUyum9-wbXjrjiuYs28-142" value="Pause" style="whiteSpace=wrap;html=1;rounded=0;glass=0;sketch=0;" parent="NRUyum9-wbXjrjiuYs28-135" vertex="1">
          <mxGeometry x="40" y="120" width="80" height="30" as="geometry" />
        </mxCell>
        <mxCell id="NRUyum9-wbXjrjiuYs28-143" value="Play" style="whiteSpace=wrap;html=1;rounded=0;glass=0;sketch=0;" parent="NRUyum9-wbXjrjiuYs28-135" vertex="1">
          <mxGeometry x="165" y="120" width="70" height="30" as="geometry" />
        </mxCell>
        <mxCell id="NRUyum9-wbXjrjiuYs28-158" value="Tree Container" style="swimlane;html=1;startSize=20;horizontal=1;containerType=tree;rounded=0;glass=0;sketch=0;" parent="NRUyum9-wbXjrjiuYs28-135" vertex="1" collapsed="1">
          <mxGeometry x="60" y="30" width="120" height="20" as="geometry">
            <mxRectangle x="250" y="760" width="240" height="200" as="alternateBounds" />
          </mxGeometry>
        </mxCell>
        <mxCell id="NRUyum9-wbXjrjiuYs28-159" style="edgeStyle=orthogonalEdgeStyle;rounded=1;orthogonalLoop=1;jettySize=auto;html=1;exitX=0.5;exitY=1;exitDx=0;exitDy=0;shadow=0;startArrow=none;startFill=0;endArrow=classic;endFill=1;strokeWidth=1;" parent="NRUyum9-wbXjrjiuYs28-158" source="NRUyum9-wbXjrjiuYs28-161" target="NRUyum9-wbXjrjiuYs28-162" edge="1">
          <mxGeometry relative="1" as="geometry" />
        </mxCell>
        <mxCell id="NRUyum9-wbXjrjiuYs28-160" style="edgeStyle=orthogonalEdgeStyle;rounded=1;orthogonalLoop=1;jettySize=auto;html=1;exitX=0.5;exitY=0;exitDx=0;exitDy=0;entryX=0.354;entryY=0.101;entryDx=0;entryDy=0;entryPerimeter=0;shadow=0;startArrow=classic;startFill=1;endArrow=none;endFill=0;strokeWidth=1;" parent="NRUyum9-wbXjrjiuYs28-158" source="NRUyum9-wbXjrjiuYs28-161" target="NRUyum9-wbXjrjiuYs28-158" edge="1">
          <mxGeometry relative="1" as="geometry" />
        </mxCell>
        <mxCell id="NRUyum9-wbXjrjiuYs28-161" value="다음곡 실행" style="whiteSpace=wrap;html=1;rounded=0;glass=0;sketch=0;" parent="NRUyum9-wbXjrjiuYs28-158" vertex="1">
          <mxGeometry x="10" y="50" width="150" height="30" as="geometry" />
        </mxCell>
        <mxCell id="NRUyum9-wbXjrjiuYs28-162" value="다음곡이 없으면" style="whiteSpace=wrap;html=1;rounded=0;glass=0;sketch=0;" parent="NRUyum9-wbXjrjiuYs28-158" vertex="1">
          <mxGeometry x="10" y="110" width="150" height="30" as="geometry" />
        </mxCell>
        <mxCell id="NRUyum9-wbXjrjiuYs28-163" style="edgeStyle=orthogonalEdgeStyle;rounded=1;orthogonalLoop=1;jettySize=auto;html=1;exitX=0.5;exitY=1;exitDx=0;exitDy=0;shadow=0;startArrow=none;startFill=0;endArrow=classic;endFill=1;strokeWidth=1;entryX=0.5;entryY=1;entryDx=0;entryDy=0;" parent="NRUyum9-wbXjrjiuYs28-158" source="NRUyum9-wbXjrjiuYs28-162" target="NRUyum9-wbXjrjiuYs28-158" edge="1">
          <mxGeometry relative="1" as="geometry">
            <mxPoint x="210" y="310" as="targetPoint" />
            <Array as="points">
              <mxPoint x="85" y="170" />
              <mxPoint x="120" y="170" />
            </Array>
          </mxGeometry>
        </mxCell>
        <mxCell id="NRUyum9-wbXjrjiuYs28-164" value="??" style="text;html=1;align=center;verticalAlign=middle;resizable=0;points=[];autosize=1;" parent="NRUyum9-wbXjrjiuYs28-158" vertex="1">
          <mxGeometry x="200" y="115" width="30" height="20" as="geometry" />
        </mxCell>
        <mxCell id="NRUyum9-wbXjrjiuYs28-165" style="edgeStyle=orthogonalEdgeStyle;rounded=1;orthogonalLoop=1;jettySize=auto;html=1;exitX=1;exitY=0.5;exitDx=0;exitDy=0;shadow=0;startArrow=none;startFill=0;endArrow=classic;endFill=1;strokeWidth=1;" parent="NRUyum9-wbXjrjiuYs28-158" source="NRUyum9-wbXjrjiuYs28-162" target="NRUyum9-wbXjrjiuYs28-164" edge="1">
          <mxGeometry relative="1" as="geometry">
            <mxPoint x="200" y="125.10344827586209" as="targetPoint" />
          </mxGeometry>
        </mxCell>
        <mxCell id="NRUyum9-wbXjrjiuYs28-192" style="edgeStyle=orthogonalEdgeStyle;rounded=1;orthogonalLoop=1;jettySize=auto;html=1;exitX=0.5;exitY=1;exitDx=0;exitDy=0;shadow=0;startArrow=none;startFill=0;endArrow=classic;endFill=1;strokeWidth=1;entryX=0.5;entryY=1;entryDx=0;entryDy=0;" parent="NRUyum9-wbXjrjiuYs28-135" source="NRUyum9-wbXjrjiuYs28-143" target="NRUyum9-wbXjrjiuYs28-135" edge="1">
          <mxGeometry relative="1" as="geometry">
            <mxPoint x="160" y="100" as="targetPoint" />
          </mxGeometry>
        </mxCell>
        <mxCell id="NRUyum9-wbXjrjiuYs28-202" style="edgeStyle=orthogonalEdgeStyle;rounded=1;orthogonalLoop=1;jettySize=auto;html=1;exitX=0.5;exitY=1;exitDx=0;exitDy=0;shadow=0;startArrow=none;startFill=0;endArrow=classic;endFill=1;strokeWidth=1;" parent="NRUyum9-wbXjrjiuYs28-57" source="NRUyum9-wbXjrjiuYs28-139" target="NRUyum9-wbXjrjiuYs28-197" edge="1">
          <mxGeometry relative="1" as="geometry">
            <Array as="points">
              <mxPoint x="275" y="860" />
              <mxPoint x="325" y="860" />
            </Array>
          </mxGeometry>
        </mxCell>
        <mxCell id="NRUyum9-wbXjrjiuYs28-139" value="Tree Container" style="swimlane;html=1;startSize=20;horizontal=1;containerType=tree;rounded=0;glass=0;sketch=0;" parent="NRUyum9-wbXjrjiuYs28-57" vertex="1" collapsed="1">
          <mxGeometry x="215" y="740" width="120" height="20" as="geometry">
            <mxRectangle x="215" y="740" width="240" height="200" as="alternateBounds" />
          </mxGeometry>
        </mxCell>
        <mxCell id="NRUyum9-wbXjrjiuYs28-152" style="edgeStyle=orthogonalEdgeStyle;rounded=1;orthogonalLoop=1;jettySize=auto;html=1;exitX=0.5;exitY=1;exitDx=0;exitDy=0;shadow=0;startArrow=none;startFill=0;endArrow=classic;endFill=1;strokeWidth=1;" parent="NRUyum9-wbXjrjiuYs28-139" source="NRUyum9-wbXjrjiuYs28-147" target="NRUyum9-wbXjrjiuYs28-151" edge="1">
          <mxGeometry relative="1" as="geometry" />
        </mxCell>
        <mxCell id="NRUyum9-wbXjrjiuYs28-156" style="edgeStyle=orthogonalEdgeStyle;rounded=1;orthogonalLoop=1;jettySize=auto;html=1;exitX=0.5;exitY=0;exitDx=0;exitDy=0;entryX=0.354;entryY=0.101;entryDx=0;entryDy=0;entryPerimeter=0;shadow=0;startArrow=classic;startFill=1;endArrow=none;endFill=0;strokeWidth=1;" parent="NRUyum9-wbXjrjiuYs28-139" source="NRUyum9-wbXjrjiuYs28-147" target="NRUyum9-wbXjrjiuYs28-139" edge="1">
          <mxGeometry relative="1" as="geometry" />
        </mxCell>
        <mxCell id="NRUyum9-wbXjrjiuYs28-147" value="다음곡 실행" style="whiteSpace=wrap;html=1;rounded=0;glass=0;sketch=0;" parent="NRUyum9-wbXjrjiuYs28-139" vertex="1">
          <mxGeometry x="10" y="50" width="150" height="30" as="geometry" />
        </mxCell>
        <mxCell id="NRUyum9-wbXjrjiuYs28-151" value="다음곡이 없으면" style="whiteSpace=wrap;html=1;rounded=0;glass=0;sketch=0;" parent="NRUyum9-wbXjrjiuYs28-139" vertex="1">
          <mxGeometry x="10" y="110" width="150" height="30" as="geometry" />
        </mxCell>
        <mxCell id="NRUyum9-wbXjrjiuYs28-153" style="edgeStyle=orthogonalEdgeStyle;rounded=1;orthogonalLoop=1;jettySize=auto;html=1;exitX=0.5;exitY=1;exitDx=0;exitDy=0;shadow=0;startArrow=none;startFill=0;endArrow=classic;endFill=1;strokeWidth=1;entryX=0.5;entryY=1;entryDx=0;entryDy=0;" parent="NRUyum9-wbXjrjiuYs28-139" source="NRUyum9-wbXjrjiuYs28-151" target="NRUyum9-wbXjrjiuYs28-139" edge="1">
          <mxGeometry relative="1" as="geometry">
            <mxPoint x="210" y="310" as="targetPoint" />
            <Array as="points">
              <mxPoint x="85" y="170" />
              <mxPoint x="120" y="170" />
            </Array>
          </mxGeometry>
        </mxCell>
        <mxCell id="NRUyum9-wbXjrjiuYs28-155" value="??" style="text;html=1;align=center;verticalAlign=middle;resizable=0;points=[];autosize=1;" parent="NRUyum9-wbXjrjiuYs28-139" vertex="1">
          <mxGeometry x="200" y="115" width="30" height="20" as="geometry" />
        </mxCell>
        <mxCell id="NRUyum9-wbXjrjiuYs28-154" style="edgeStyle=orthogonalEdgeStyle;rounded=1;orthogonalLoop=1;jettySize=auto;html=1;exitX=1;exitY=0.5;exitDx=0;exitDy=0;shadow=0;startArrow=none;startFill=0;endArrow=classic;endFill=1;strokeWidth=1;" parent="NRUyum9-wbXjrjiuYs28-139" source="NRUyum9-wbXjrjiuYs28-151" target="NRUyum9-wbXjrjiuYs28-155" edge="1">
          <mxGeometry relative="1" as="geometry">
            <mxPoint x="200" y="125.10344827586209" as="targetPoint" />
          </mxGeometry>
        </mxCell>
        <mxCell id="NRUyum9-wbXjrjiuYs28-199" value="No" style="edgeStyle=orthogonalEdgeStyle;rounded=1;orthogonalLoop=1;jettySize=auto;html=1;exitX=0.5;exitY=1;exitDx=0;exitDy=0;shadow=0;startArrow=none;startFill=0;endArrow=classic;endFill=1;strokeWidth=1;verticalAlign=middle;" parent="NRUyum9-wbXjrjiuYs28-57" source="NRUyum9-wbXjrjiuYs28-183" target="NRUyum9-wbXjrjiuYs28-197" edge="1">
          <mxGeometry relative="1" as="geometry">
            <Array as="points">
              <mxPoint x="490" y="860" />
              <mxPoint x="325" y="860" />
            </Array>
          </mxGeometry>
        </mxCell>
        <mxCell id="NRUyum9-wbXjrjiuYs28-205" value="Yes" style="edgeStyle=orthogonalEdgeStyle;rounded=1;orthogonalLoop=1;jettySize=auto;html=1;exitX=0;exitY=0.5;exitDx=0;exitDy=0;shadow=0;startArrow=none;startFill=0;endArrow=classic;endFill=1;strokeWidth=1;" parent="NRUyum9-wbXjrjiuYs28-57" source="NRUyum9-wbXjrjiuYs28-183" target="NRUyum9-wbXjrjiuYs28-139" edge="1">
          <mxGeometry relative="1" as="geometry">
            <Array as="points">
              <mxPoint x="380" y="785" />
              <mxPoint x="380" y="710" />
              <mxPoint x="275" y="710" />
            </Array>
          </mxGeometry>
        </mxCell>
        <mxCell id="NRUyum9-wbXjrjiuYs28-183" value="시간 &amp;nbsp;끝?" style="rhombus;whiteSpace=wrap;html=1;rounded=0;glass=0;labelBackgroundColor=none;sketch=0;align=center;" parent="NRUyum9-wbXjrjiuYs28-57" vertex="1">
          <mxGeometry x="425" y="760" width="130" height="50" as="geometry" />
        </mxCell>
        <mxCell id="NRUyum9-wbXjrjiuYs28-189" style="edgeStyle=orthogonalEdgeStyle;rounded=1;orthogonalLoop=1;jettySize=auto;html=1;exitX=0.5;exitY=1;exitDx=0;exitDy=0;shadow=0;startArrow=none;startFill=0;endArrow=classic;endFill=1;strokeWidth=1;" parent="NRUyum9-wbXjrjiuYs28-57" source="NRUyum9-wbXjrjiuYs28-187" target="NRUyum9-wbXjrjiuYs28-183" edge="1">
          <mxGeometry relative="1" as="geometry" />
        </mxCell>
        <mxCell id="NRUyum9-wbXjrjiuYs28-187" value="시간 조절" style="shape=parallelogram;perimeter=parallelogramPerimeter;whiteSpace=wrap;html=1;fixedSize=1;rounded=0;glass=0;labelBackgroundColor=none;sketch=0;align=center;" parent="NRUyum9-wbXjrjiuYs28-57" vertex="1">
          <mxGeometry x="440" y="690" width="100" height="40" as="geometry" />
        </mxCell>
        <mxCell id="NRUyum9-wbXjrjiuYs28-198" style="edgeStyle=orthogonalEdgeStyle;rounded=1;orthogonalLoop=1;jettySize=auto;html=1;exitX=0.5;exitY=1;exitDx=0;exitDy=0;shadow=0;startArrow=none;startFill=0;endArrow=classic;endFill=1;strokeWidth=1;" parent="NRUyum9-wbXjrjiuYs28-57" source="NRUyum9-wbXjrjiuYs28-195" target="NRUyum9-wbXjrjiuYs28-197" edge="1">
          <mxGeometry relative="1" as="geometry">
            <Array as="points">
              <mxPoint x="205" y="860" />
              <mxPoint x="325" y="860" />
            </Array>
          </mxGeometry>
        </mxCell>
        <mxCell id="NRUyum9-wbXjrjiuYs28-195" value="실행 상태 설정" style="shape=parallelogram;perimeter=parallelogramPerimeter;whiteSpace=wrap;html=1;fixedSize=1;rounded=0;glass=0;labelBackgroundColor=none;sketch=0;align=center;" parent="NRUyum9-wbXjrjiuYs28-57" vertex="1">
          <mxGeometry x="150" y="790" width="110" height="40" as="geometry" />
        </mxCell>
        <mxCell id="NRUyum9-wbXjrjiuYs28-197" value="Play Logic" style="shape=parallelogram;perimeter=parallelogramPerimeter;whiteSpace=wrap;html=1;fixedSize=1;rounded=0;glass=0;labelBackgroundColor=none;sketch=0;align=center;fillColor=#d5e8d4;strokeColor=#82b366;" parent="NRUyum9-wbXjrjiuYs28-57" vertex="1">
          <mxGeometry x="270" y="1030" width="110" height="40" as="geometry" />
        </mxCell>
        <mxCell id="NRUyum9-wbXjrjiuYs28-207" value="Note" style="locked=1;" parent="0" />
        <mxCell id="NRUyum9-wbXjrjiuYs28-208" value="랜덤반복&lt;br&gt;한곡반복" style="shape=note;whiteSpace=wrap;html=1;backgroundOutline=1;darkOpacity=0.05;rounded=0;glass=0;sketch=0;fillColor=#fff2cc;strokeColor=#d6b656;align=left;verticalAlign=top;labelPosition=center;verticalLabelPosition=middle;size=16;labelBorderColor=none;labelBackgroundColor=none;spacingTop=0;spacing=10;" parent="NRUyum9-wbXjrjiuYs28-207" vertex="1">
          <mxGeometry x="470" y="20" width="80" height="60" as="geometry" />
        </mxCell>
      </root>
    </mxGraphModel>
  </diagram>
</mxfile>
